<svg width="200" height="200" viewBox="0 0 200 200" fill="none" xmlns="http://www.w3.org/2000/svg">
<rect width="200" height="200" fill="#F1F1F1"/>
<path d="M101.042 98.3333C108.777 98.3333 116.196 95.2604 121.666 89.7906C127.135 84.3208 130.208 76.9021 130.208 69.1667C130.208 61.4312 127.135 54.0125 121.666 48.5427C116.196 43.0729 108.777 40 101.042 40C93.3062 40 85.8875 43.0729 80.4177 48.5427C74.9479 54.0125 71.875 61.4312 71.875 69.1667C71.875 76.9021 74.9479 84.3208 80.4177 89.7906C85.8875 95.2604 93.3062 98.3333 101.042 98.3333ZM90.6283 109.271C68.1836 109.271 50 127.454 50 149.899C50 153.636 53.0306 156.667 56.7676 156.667H145.316C149.053 156.667 152.083 153.636 152.083 149.899C152.083 127.454 133.9 109.271 111.455 109.271H90.6283Z" fill="#333333"/>
</svg>
